<svg xmlns="http://www.w3.org/2000/svg" viewBox="0 0 920 240" role="img" aria-labelledby="title desc">
  <title id="title">National Park Passes logo</title>
  <desc id="desc">National Park Passes wordmark with Australia outline.</desc>
  <g fill="#1F3A2E">
    <text x="20" y="105" font-family="Inter, Arial, sans-serif" font-size="72" font-weight="700">National</text>
    <text x="20" y="185" font-family="Inter, Arial, sans-serif" font-size="72" font-weight="700">Park Passes</text>
  </g>
  <path
    d="M548 170c16-8 35-14 65-16 27-3 48-1 61 6 7 3 10 2 12-2 2-5 3-9 5-14 1-3 4-4 6-1 4 5 10 8 18 11 8 4 13 9 17 15 6 9 12 14 25 13 9 0 14 3 19 8 8 8 17 8 28 2 8-4 14-4 20 2 6 7 12 7 19 2 9-7 13-16 17-28 2-6 5-12 10-16 19-18 31-42 32-70 1-29-11-54-33-75-6-5-10-11-14-18-4-8-8-16-10-25-2-10-8-12-15-4-7 9-12 20-15 31-2 8-5 15-10 21-3 3-6 5-10 2-6-4-10-9-14-15-4-8-7-17-2-26 2-3 3-6 5-9 4-6 2-10-5-12-11-2-22-1-33 1-8 1-16 4-24 7-5 2-9 2-13-2-11-10-24-10-37-2-15 8-28 20-37 34-8 12-18 20-30 27-18 10-36 18-54 26-13 6-23 15-29 28-2 6-5 11-10 15-9 6-11 15-10 25 0 7-2 13-7 17-6 5-12 11-18 18-4 6-6 12 1 17 6 5 14 4 21 1z"
    fill="none"
    stroke="#1F3A2E"
    stroke-width="8"
    stroke-linecap="round"
    stroke-linejoin="round"
  />
  <path d="M770 202c-2 8 2 14 10 18 9 3 16 0 20-8 2-5 2-10-2-14-3-3-8-4-13-4-7 0-13 2-15 8z" fill="none" stroke="#1F3A2E" stroke-width="7" stroke-linecap="round" stroke-linejoin="round" />
</svg>
