<svg xmlns="http://www.w3.org/2000/svg" xmlns:xlink="http://www.w3.org/1999/xlink" width="100" zoomAndPan="magnify" viewBox="0 0 75 30.000001" height="40" preserveAspectRatio="xMidYMid meet" version="1.0"><defs><g/><clipPath id="78812ede5c"><path d="M 1.210938 0 L 73.789062 0 L 73.789062 29.03125 L 1.210938 29.03125 Z M 1.210938 0 " clip-rule="nonzero"/></clipPath><clipPath id="11df54afa5"><path d="M 8.757812 10.792969 L 16.742188 10.792969 L 16.742188 18.050781 L 8.757812 18.050781 Z M 8.757812 10.792969 " clip-rule="nonzero"/></clipPath><clipPath id="bc48c93494"><path d="M 46 3 L 51.957031 3 L 51.957031 9 L 46 9 Z M 46 3 " clip-rule="nonzero"/></clipPath><clipPath id="33ec8217e1"><rect x="0" width="52" y="0" height="11"/></clipPath></defs><g clip-path="url(#78812ede5c)"><path fill="#ffffff" d="M 1.210938 0 L 73.789062 0 L 73.789062 29.03125 L 1.210938 29.03125 Z M 1.210938 0 " fill-opacity="1" fill-rule="nonzero"/><path fill="#ffffff" d="M 1.210938 0 L 73.789062 0 L 73.789062 29.03125 L 1.210938 29.03125 Z M 1.210938 0 " fill-opacity="1" fill-rule="nonzero"/></g><g clip-path="url(#11df54afa5)"><path fill="#315efd" d="M 13.542969 10.792969 C 13.988281 10.792969 14.398438 10.871094 14.761719 11.019531 L 8.757812 18.105469 L 10.3125 10.792969 Z M 15.195312 11.238281 C 16.203125 11.859375 16.714844 13.0625 16.421875 14.449219 C 15.992188 16.46875 14.007812 18.105469 11.988281 18.105469 L 11.128906 18.105469 Z M 15.195312 11.238281 " fill-opacity="1" fill-rule="nonzero"/></g><g transform="matrix(1, 0, 0, 1, 18, 9)"><g clip-path="url(#33ec8217e1)"><g fill="#13223a" fill-opacity="1"><g transform="translate(0.92552, 8.167319)"><g><path d="M 0.3125 0 L 0.3125 -5.71875 L 2.34375 -5.71875 C 2.613281 -5.71875 2.875 -5.695312 3.125 -5.65625 C 3.382812 -5.625 3.625 -5.554688 3.84375 -5.453125 C 4.070312 -5.347656 4.269531 -5.203125 4.4375 -5.015625 C 4.601562 -4.828125 4.726562 -4.582031 4.8125 -4.28125 C 4.90625 -3.988281 4.953125 -3.628906 4.953125 -3.203125 L 4.953125 -2.578125 C 4.953125 -2.046875 4.878906 -1.609375 4.734375 -1.265625 C 4.597656 -0.921875 4.40625 -0.65625 4.15625 -0.46875 C 3.914062 -0.289062 3.640625 -0.164062 3.328125 -0.09375 C 3.015625 -0.03125 2.6875 0 2.34375 0 Z M 1.265625 -0.859375 L 2.34375 -0.859375 C 2.582031 -0.859375 2.800781 -0.878906 3 -0.921875 C 3.195312 -0.972656 3.363281 -1.054688 3.5 -1.171875 C 3.632812 -1.296875 3.738281 -1.472656 3.8125 -1.703125 C 3.894531 -1.929688 3.9375 -2.222656 3.9375 -2.578125 L 3.9375 -3.203125 C 3.9375 -3.554688 3.894531 -3.84375 3.8125 -4.0625 C 3.738281 -4.289062 3.632812 -4.457031 3.5 -4.5625 C 3.363281 -4.675781 3.195312 -4.753906 3 -4.796875 C 2.800781 -4.835938 2.582031 -4.859375 2.34375 -4.859375 L 1.265625 -4.859375 Z M 1.265625 -0.859375 "/></g></g></g><g fill="#13223a" fill-opacity="1"><g transform="translate(6.269422, 8.167319)"><g><path d="M 0.3125 0 L 0.3125 -4.453125 L 1.265625 -4.453125 L 1.078125 -3.140625 L 1.265625 -3.140625 C 1.335938 -3.460938 1.457031 -3.71875 1.625 -3.90625 C 1.789062 -4.09375 1.988281 -4.226562 2.21875 -4.3125 C 2.445312 -4.40625 2.6875 -4.453125 2.9375 -4.453125 L 2.9375 -3.6875 C 2.625 -3.6875 2.335938 -3.644531 2.078125 -3.5625 C 1.828125 -3.488281 1.628906 -3.347656 1.484375 -3.140625 C 1.347656 -2.941406 1.28125 -2.65625 1.28125 -2.28125 L 1.265625 0 Z M 0.3125 0 "/></g></g></g><g fill="#13223a" fill-opacity="1"><g transform="translate(9.520301, 8.167319)"><g><path d="M 0.390625 0 L 0.390625 -4.453125 L 1.34375 -4.453125 L 1.34375 0 Z M 0.3125 -5.1875 L 0.859375 -5.71875 L 1.40625 -5.1875 L 0.859375 -4.640625 Z M 0.3125 -5.1875 "/></g></g></g><g fill="#13223a" fill-opacity="1"><g transform="translate(11.24435, 8.167319)"><g><path d="M 0.3125 -4.453125 L 1.265625 -4.453125 L 2.15625 -0.703125 L 2.703125 -0.703125 L 3.59375 -4.453125 L 4.546875 -4.453125 L 3.484375 0 L 1.375 0 Z M 0.3125 -4.453125 "/></g></g></g><g fill="#13223a" fill-opacity="1"><g transform="translate(15.913905, 8.167319)"><g><path d="M 0.3125 -2.234375 C 0.3125 -2.691406 0.410156 -3.09375 0.609375 -3.4375 C 0.816406 -3.78125 1.097656 -4.046875 1.453125 -4.234375 C 1.804688 -4.421875 2.210938 -4.515625 2.671875 -4.515625 C 2.984375 -4.515625 3.28125 -4.46875 3.5625 -4.375 C 3.851562 -4.28125 4.109375 -4.132812 4.328125 -3.9375 C 4.554688 -3.738281 4.734375 -3.476562 4.859375 -3.15625 C 4.992188 -2.832031 5.0625 -2.441406 5.0625 -1.984375 L 1.28125 -1.984375 C 1.320312 -1.566406 1.472656 -1.242188 1.734375 -1.015625 C 1.992188 -0.796875 2.304688 -0.6875 2.671875 -0.6875 C 2.898438 -0.6875 3.113281 -0.726562 3.3125 -0.8125 C 3.507812 -0.894531 3.675781 -1.007812 3.8125 -1.15625 C 3.957031 -1.300781 4.050781 -1.460938 4.09375 -1.640625 L 5.046875 -1.640625 C 4.984375 -1.316406 4.84375 -1.023438 4.625 -0.765625 C 4.40625 -0.515625 4.128906 -0.3125 3.796875 -0.15625 C 3.460938 -0.0078125 3.085938 0.0625 2.671875 0.0625 C 2.328125 0.0625 2.007812 0.00390625 1.71875 -0.109375 C 1.4375 -0.234375 1.191406 -0.398438 0.984375 -0.609375 C 0.773438 -0.816406 0.609375 -1.054688 0.484375 -1.328125 C 0.367188 -1.609375 0.3125 -1.910156 0.3125 -2.234375 Z M 1.328125 -2.75 L 4.03125 -2.75 C 3.957031 -3.007812 3.847656 -3.210938 3.703125 -3.359375 C 3.554688 -3.503906 3.390625 -3.609375 3.203125 -3.671875 C 3.023438 -3.734375 2.847656 -3.765625 2.671875 -3.765625 C 2.347656 -3.765625 2.066406 -3.675781 1.828125 -3.5 C 1.585938 -3.320312 1.421875 -3.070312 1.328125 -2.75 Z M 1.328125 -2.75 "/></g></g></g><g fill="#13223a" fill-opacity="1"><g transform="translate(21.29598, 8.167319)"><g/></g></g><g fill="#13223a" fill-opacity="1"><g transform="translate(23.840697, 8.167319)"><g><path d="M 0.3125 0 L 0.3125 -5.71875 L 4.421875 -5.71875 L 4.421875 -4.734375 L 1.28125 -4.734375 L 1.265625 -3.3125 L 3.53125 -3.3125 L 3.53125 -2.328125 L 1.28125 -2.328125 L 1.265625 0 Z M 0.3125 0 "/></g></g></g><g fill="#13223a" fill-opacity="1"><g transform="translate(28.07129, 8.167319)"><g><path d="M 0.3125 0 L 0.3125 -4.453125 L 1.265625 -4.453125 L 1.078125 -3.140625 L 1.265625 -3.140625 C 1.335938 -3.460938 1.457031 -3.71875 1.625 -3.90625 C 1.789062 -4.09375 1.988281 -4.226562 2.21875 -4.3125 C 2.445312 -4.40625 2.6875 -4.453125 2.9375 -4.453125 L 2.9375 -3.6875 C 2.625 -3.6875 2.335938 -3.644531 2.078125 -3.5625 C 1.828125 -3.488281 1.628906 -3.347656 1.484375 -3.140625 C 1.347656 -2.941406 1.28125 -2.65625 1.28125 -2.28125 L 1.265625 0 Z M 0.3125 0 "/></g></g></g><g fill="#13223a" fill-opacity="1"><g transform="translate(31.131316, 8.167319)"><g><path d="M 0.3125 -1.265625 C 0.3125 -1.742188 0.503906 -2.101562 0.890625 -2.34375 C 1.273438 -2.59375 1.847656 -2.769531 2.609375 -2.875 L 3.484375 -3 C 3.484375 -3.113281 3.453125 -3.226562 3.390625 -3.34375 C 3.335938 -3.457031 3.25 -3.550781 3.125 -3.625 C 3 -3.707031 2.832031 -3.75 2.625 -3.75 C 2.4375 -3.75 2.257812 -3.722656 2.09375 -3.671875 C 1.925781 -3.617188 1.789062 -3.523438 1.6875 -3.390625 C 1.59375 -3.265625 1.546875 -3.085938 1.546875 -2.859375 L 0.59375 -2.859375 C 0.59375 -3.148438 0.644531 -3.398438 0.75 -3.609375 C 0.863281 -3.828125 1.015625 -4 1.203125 -4.125 C 1.398438 -4.257812 1.617188 -4.359375 1.859375 -4.421875 C 2.109375 -4.484375 2.363281 -4.515625 2.625 -4.515625 C 3.019531 -4.515625 3.332031 -4.457031 3.5625 -4.34375 C 3.800781 -4.226562 3.984375 -4.082031 4.109375 -3.90625 C 4.234375 -3.726562 4.316406 -3.535156 4.359375 -3.328125 C 4.410156 -3.117188 4.4375 -2.921875 4.4375 -2.734375 L 4.4375 -1.265625 C 4.4375 -1.078125 4.457031 -0.945312 4.5 -0.875 C 4.539062 -0.800781 4.625 -0.765625 4.75 -0.765625 L 4.828125 -0.765625 L 4.828125 0 L 4.75 0 C 4.488281 0 4.28125 -0.0351562 4.125 -0.109375 C 3.976562 -0.179688 3.875 -0.304688 3.8125 -0.484375 C 3.757812 -0.671875 3.734375 -0.929688 3.734375 -1.265625 L 3.546875 -1.265625 C 3.484375 -1.003906 3.363281 -0.773438 3.1875 -0.578125 C 3.019531 -0.378906 2.8125 -0.222656 2.5625 -0.109375 C 2.320312 0.00390625 2.066406 0.0625 1.796875 0.0625 C 1.546875 0.0625 1.304688 0.0195312 1.078125 -0.0625 C 0.847656 -0.15625 0.660156 -0.300781 0.515625 -0.5 C 0.378906 -0.695312 0.3125 -0.953125 0.3125 -1.265625 Z M 1.265625 -1.265625 C 1.265625 -1.160156 1.289062 -1.050781 1.34375 -0.9375 C 1.40625 -0.832031 1.492188 -0.742188 1.609375 -0.671875 C 1.734375 -0.597656 1.898438 -0.5625 2.109375 -0.5625 C 2.222656 -0.5625 2.34375 -0.582031 2.46875 -0.625 C 2.59375 -0.664062 2.71875 -0.742188 2.84375 -0.859375 C 2.976562 -0.984375 3.097656 -1.15625 3.203125 -1.375 C 3.316406 -1.59375 3.410156 -1.878906 3.484375 -2.234375 L 2.609375 -2.125 C 2.234375 -2.070312 1.945312 -2 1.75 -1.90625 C 1.5625 -1.8125 1.429688 -1.707031 1.359375 -1.59375 C 1.296875 -1.488281 1.265625 -1.378906 1.265625 -1.265625 Z M 1.265625 -1.265625 "/></g></g></g><g fill="#13223a" fill-opacity="1"><g transform="translate(36.462501, 8.167319)"><g><path d="M 0.3125 0 L 0.3125 -4.453125 L 1.265625 -4.453125 L 1.078125 -3.140625 L 1.265625 -3.140625 C 1.335938 -3.460938 1.457031 -3.71875 1.625 -3.90625 C 1.789062 -4.09375 1.992188 -4.226562 2.234375 -4.3125 C 2.472656 -4.40625 2.726562 -4.453125 3 -4.453125 C 3.207031 -4.453125 3.414062 -4.421875 3.625 -4.359375 C 3.832031 -4.296875 4.019531 -4.1875 4.1875 -4.03125 C 4.363281 -3.875 4.503906 -3.648438 4.609375 -3.359375 C 4.722656 -3.078125 4.78125 -2.71875 4.78125 -2.28125 L 4.78125 0 L 3.828125 0 L 3.828125 -2.28125 C 3.828125 -2.65625 3.773438 -2.941406 3.671875 -3.140625 C 3.566406 -3.347656 3.429688 -3.488281 3.265625 -3.5625 C 3.097656 -3.644531 2.90625 -3.6875 2.6875 -3.6875 C 2.507812 -3.6875 2.335938 -3.664062 2.171875 -3.625 C 2.003906 -3.582031 1.851562 -3.507812 1.71875 -3.40625 C 1.582031 -3.300781 1.472656 -3.15625 1.390625 -2.96875 C 1.316406 -2.789062 1.28125 -2.5625 1.28125 -2.28125 L 1.265625 0 Z M 0.3125 0 "/></g></g></g><g fill="#13223a" fill-opacity="1"><g transform="translate(41.558294, 8.167319)"><g><path d="M 0.3125 -2.21875 C 0.3125 -2.53125 0.367188 -2.820312 0.484375 -3.09375 C 0.597656 -3.375 0.753906 -3.617188 0.953125 -3.828125 C 1.148438 -4.046875 1.378906 -4.210938 1.640625 -4.328125 C 1.910156 -4.453125 2.203125 -4.515625 2.515625 -4.515625 C 2.972656 -4.515625 3.359375 -4.425781 3.671875 -4.25 C 3.984375 -4.082031 4.222656 -3.851562 4.390625 -3.5625 C 4.566406 -3.28125 4.664062 -2.972656 4.6875 -2.640625 L 3.734375 -2.640625 C 3.671875 -3.003906 3.53125 -3.253906 3.3125 -3.390625 C 3.09375 -3.535156 2.828125 -3.609375 2.515625 -3.609375 C 2.242188 -3.609375 2.015625 -3.539062 1.828125 -3.40625 C 1.648438 -3.28125 1.507812 -3.109375 1.40625 -2.890625 C 1.3125 -2.679688 1.265625 -2.457031 1.265625 -2.21875 C 1.265625 -1.96875 1.3125 -1.738281 1.40625 -1.53125 C 1.507812 -1.320312 1.648438 -1.15625 1.828125 -1.03125 C 2.015625 -0.90625 2.242188 -0.84375 2.515625 -0.84375 C 2.828125 -0.84375 3.09375 -0.910156 3.3125 -1.046875 C 3.53125 -1.191406 3.671875 -1.4375 3.734375 -1.78125 L 4.6875 -1.78125 C 4.664062 -1.445312 4.566406 -1.140625 4.390625 -0.859375 C 4.222656 -0.578125 3.984375 -0.351562 3.671875 -0.1875 C 3.359375 -0.0195312 2.972656 0.0625 2.515625 0.0625 C 2.203125 0.0625 1.910156 0.00390625 1.640625 -0.109375 C 1.378906 -0.222656 1.148438 -0.382812 0.953125 -0.59375 C 0.753906 -0.8125 0.597656 -1.054688 0.484375 -1.328125 C 0.367188 -1.609375 0.3125 -1.90625 0.3125 -2.21875 Z M 0.3125 -2.21875 "/></g></g></g><g clip-path="url(#bc48c93494)"><g fill="#13223a" fill-opacity="1"><g transform="translate(46.380535, 8.167319)"><g><path d="M 0.3125 -2.234375 C 0.3125 -2.691406 0.410156 -3.09375 0.609375 -3.4375 C 0.816406 -3.78125 1.097656 -4.046875 1.453125 -4.234375 C 1.804688 -4.421875 2.210938 -4.515625 2.671875 -4.515625 C 2.984375 -4.515625 3.28125 -4.46875 3.5625 -4.375 C 3.851562 -4.28125 4.109375 -4.132812 4.328125 -3.9375 C 4.554688 -3.738281 4.734375 -3.476562 4.859375 -3.15625 C 4.992188 -2.832031 5.0625 -2.441406 5.0625 -1.984375 L 1.28125 -1.984375 C 1.320312 -1.566406 1.472656 -1.242188 1.734375 -1.015625 C 1.992188 -0.796875 2.304688 -0.6875 2.671875 -0.6875 C 2.898438 -0.6875 3.113281 -0.726562 3.3125 -0.8125 C 3.507812 -0.894531 3.675781 -1.007812 3.8125 -1.15625 C 3.957031 -1.300781 4.050781 -1.460938 4.09375 -1.640625 L 5.046875 -1.640625 C 4.984375 -1.316406 4.84375 -1.023438 4.625 -0.765625 C 4.40625 -0.515625 4.128906 -0.3125 3.796875 -0.15625 C 3.460938 -0.0078125 3.085938 0.0625 2.671875 0.0625 C 2.328125 0.0625 2.007812 0.00390625 1.71875 -0.109375 C 1.4375 -0.234375 1.191406 -0.398438 0.984375 -0.609375 C 0.773438 -0.816406 0.609375 -1.054688 0.484375 -1.328125 C 0.367188 -1.609375 0.3125 -1.910156 0.3125 -2.234375 Z M 1.328125 -2.75 L 4.03125 -2.75 C 3.957031 -3.007812 3.847656 -3.210938 3.703125 -3.359375 C 3.554688 -3.503906 3.390625 -3.609375 3.203125 -3.671875 C 3.023438 -3.734375 2.847656 -3.765625 2.671875 -3.765625 C 2.347656 -3.765625 2.066406 -3.675781 1.828125 -3.5 C 1.585938 -3.320312 1.421875 -3.070312 1.328125 -2.75 Z M 1.328125 -2.75 "/></g></g></g></g></g></g></svg>